PathFileType	4	(X/Y/Z)	C:/Users/opensim2020/Desktop/walking_exp_matlab/subject06_walking23_straight_01.trc																																																																																																																																					
DataRate	CameraRate	NumFrames	NumMarkers	Units	OrigDataRate	OrigDataStartFrame	OrigNumFrames																																																																																																																																	
100	100	9	45	mm	100	791	106																																																																																																																																	
Frame#	Time	LFHD			RFHD			LBHD			RBHD			C7			T10			CLAV			STRN			RBAK			LSHO			LUPA			LELB			LFRM			LWRA			LWRB			LFIN			RSHO			RUPA			RELB			RFRM			RWRA			RWRB			RFIN			LASI			RASI			LPSI			RPSI			LTHI			LKNE			LTIB			LANK			LHEE			LTOE			RTHI			RKNE			RTIB			RANK			RHEE			RTOE			*39			*40			*41			*42			*43			*44		
		X1	Y1	Z1	X2	Y2	Z2	X3	Y3	Z3	X4	Y4	Z4	X5	Y5	Z5	X6	Y6	Z6	X7	Y7	Z7	X8	Y8	Z8	X9	Y9	Z9	X10	Y10	Z10	X11	Y11	Z11	X12	Y12	Z12	X13	Y13	Z13	X14	Y14	Z14	X15	Y15	Z15	X16	Y16	Z16	X17	Y17	Z17	X18	Y18	Z18	X19	Y19	Z19	X20	Y20	Z20	X21	Y21	Z21	X22	Y22	Z22	X23	Y23	Z23	X24	Y24	Z24	X25	Y25	Z25	X26	Y26	Z26	X27	Y27	Z27	X28	Y28	Z28	X29	Y29	Z29	X30	Y30	Z30	X31	Y31	Z31	X32	Y32	Z32	X33	Y33	Z33	X34	Y34	Z34	X35	Y35	Z35	X36	Y36	Z36	X37	Y37	Z37	X38	Y38	Z38	X39	Y39	Z39	X40	Y40	Z40	X41	Y41	Z41	X42	Y42	Z42	X43	Y43	Z43	X44	Y44	Z44	X45	Y45	Z45
																																																																																																																																								
54	0.53	-149.36934	1662.24902	1365.61462	-140.40851	1656.56189	1497.54529	-285.86505	1618.73328	1377.62659	-275.39514	1617.89856	1506.88904	-293.2171	1459.79187	1437.80676	-342.05255	1133.80859	1441.11719	-185.59807	1379.33582	1435.95129	-151.11966	1202.21619	1430.27271	-370.23593	1292.8551	1520.70789	-246.94131	1412.84277	1275.9646	-276.49197	1213.95776	1202.07959	-294.71582	1102.70496	1191.59082	-282.28088	952.69519	1168.63818	-227.42683	834.96008	1207.58667	-289.64856	833.23792	1172.86304	-252.38025	750.39618	1170.2804	-226.47916	1414.04712	1596.84558	-260.01779	1220.41394	1692.98279	-245.76653	1100.59216	1711.32092	-203.28407	989.83984	1729.6366	-107.10804	875.63049	1696.41809	-159.32056	859.09503	1734.62927	-101.24065	798.34631	1736.02051	-170.6382	964.3147	1340.49585	-183.71091	969.4527	1557.90332	-328.90646	997.13562	1355.69202	-332.43631	1005.84064	1522.73718	-159.52292	661.88904	1281.28906	-100.46368	512.18945	1313.74475	-190.08034	277.2045	1316.6875	-236.23105	110.3531	1351.78113	-276.89221	102.7344	1400.51978	-107.29456	50.5084	1345.91235	-261.85812	636.53668	1596.17554	-263.37143	510.94278	1569.73804	-350.65482	256.03864	1548.71265	-389.64258	78.36618	1488.80579	-428.38953	59.27383	1439.71179	-241.31181	37.09577	1503.59766	-241.88222	1710.62036	1430.21509	NaN	NaN	NaN	NaN	NaN	NaN	NaN	NaN	NaN	NaN	NaN	NaN	NaN	NaN	NaN
55	0.54	-135.74408	1660.63989	1365.59119	-126.53666	1655.20447	1497.4165	-272.27322	1617.26257	1377.94556	-261.51215	1616.64709	1507.10413	-279.48007	1458.3844	1438.34741	-328.48923	1132.48157	1441.78979	-172.0071	1377.85413	1436.43726	-137.59055	1200.66602	1431.13293	-356.63239	1291.72693	1521.61145	-233.17998	1411.09619	1276.35242	-264.49152	1212.2478	1203.23413	-284.65298	1101.44373	1192.64905	-275.52408	951.16357	1169.7522	-224.61307	831.69995	1209.57056	-286.26331	832.08051	1173.51135	-251.49522	747.76044	1172.1051	-212.63182	1412.81592	1597.37939	-245.44667	1219.26294	1693.85266	-230.3441	1099.79785	1712.23938	-184.63719	990.4646	1730.07312	-85.33448	879.53369	1695.16968	-136.5567	861.38733	1734.0885	-76.63634	802.39587	1734.71155	-156.39915	963.02734	1341.48682	-170.49294	967.97003	1559.09644	-314.93457	995.82758	1355.96155	-319.03452	1004.43921	1523.03528	-143.94994	661.29797	1281.74231	-82.85924	512.60559	1314.68433	-159.02907	272.04956	1318.70361	-194.02948	102.73832	1354.90662	-235.04584	93.35394	1403.66101	-61.59842	50.27611	1349.34631	-252.46231	635.19897	1596.1449	-256.04672	509.49741	1569.81323	-347.34393	255.9257	1548.34924	-388.95166	78.96447	1488.21851	-427.61874	60.01913	1438.90356	-241.3203	37.02571	1503.75513	-228.0184	1709.17712	1430.19519	NaN	NaN	NaN	NaN	NaN	NaN	NaN	NaN	NaN	NaN	NaN	NaN	NaN	NaN	NaN
56	0.55	-122.00688	1658.82861	1365.43542	-112.62741	1653.62097	1497.31995	-258.55566	1615.51074	1378.10181	-247.60838	1615.16504	1507.34241	-265.51596	1456.62708	1438.70837	-314.73376	1130.85645	1442.29956	-158.36287	1376.06799	1436.89392	-124.02647	1198.88147	1431.875	-342.93567	1290.2948	1522.44592	-219.40742	1409.08167	1276.80396	-252.87004	1210.50769	1203.80542	-274.57846	1099.9751	1193.81506	-268.67987	949.62622	1170.94067	-221.4166	828.68805	1211.3783	-281.88974	830.70996	1174.13281	-250.13705	745.33002	1173.755	-198.75078	1411.32666	1597.83704	-231.11519	1217.97021	1694.69727	-215.3932	1098.76355	1713.13721	-166.51619	990.90094	1730.3374	-64.118	883.3183	1693.83923	-114.31873	863.44995	1733.27258	-52.63509	806.37286	1733.30237	-142.21651	961.56561	1342.38647	-157.27203	966.09711	1559.92896	-300.82147	994.25372	1356.28406	-305.97147	1002.95935	1523.44092	-128.44177	660.72498	1282.08362	-66.38465	512.38647	1315.56628	-127.76777	267.04388	1320.64417	-151.31725	96.14742	1358.03308	-190.8103	84.7955	1407.22241	-16.10008	50.7385	1352.96948	-242.85817	633.79175	1596.078	-248.63416	508.05637	1569.93506	-343.34888	255.85336	1548.2572	-388.17151	79.52496	1487.45837	-426.78717	60.70246	1437.80652	-240.95149	36.91022	1503.99976	-214.21477	1707.50525	1430.16479	NaN	NaN	NaN	NaN	NaN	NaN	NaN	NaN	NaN	NaN	NaN	NaN	NaN	NaN	NaN
57	0.56	-108.29933	1656.7511	1365.28394	-98.65128	1651.75867	1497.14746	-244.92065	1613.52441	1378.37231	-233.66805	1613.44934	1507.5155	-251.69136	1454.81812	1439.12292	-301.01633	1128.96143	1442.78296	-144.6003	1374.14392	1437.32898	-110.35963	1196.91943	1432.53418	-329.14487	1288.65356	1523.21948	-205.44281	1406.85498	1277.12036	-240.78317	1208.39539	1204.9917	-264.62067	1098.37341	1194.94165	-261.82764	948.01257	1172.08557	-217.72812	825.81677	1213.0061	-277.71603	829.7403	1174.67188	-248.3062	743.05469	1175.25232	-184.77028	1409.61023	1598.19238	-216.96043	1216.46594	1695.4718	-200.23343	1097.60278	1714.23499	-148.79169	991.16882	1730.47278	-43.48929	886.95081	1692.43604	-92.43415	865.55267	1732.68005	-28.77302	810.72815	1731.58105	-127.95346	959.7569	1343.09082	-143.83525	964.10846	1560.75891	-286.62991	992.39532	1356.51099	-292.07751	1000.99933	1523.64905	-113.63527	659.20569	1282.37866	-50.44428	511.58673	1316.34009	-96.82503	262.4071	1322.72412	-108.93838	90.47038	1361.51282	-148.0529	77.923	1410.70837	29.15372	52.55282	1356.75354	-232.97572	632.35278	1596.04578	-241.27068	506.71707	1570.1438	-340.57733	255.79372	1547.32312	-387.15591	80.11847	1486.37451	-425.76471	61.69527	1436.33813	-240.5116	37.00426	1504.32117	-200.41866	1705.63025	1430.13989	NaN	NaN	NaN	NaN	NaN	NaN	NaN	NaN	NaN	NaN	NaN	NaN	NaN	NaN	NaN
58	0.57	-94.91331	1654.44128	1365.1405	-84.68538	1649.77856	1496.97461	-231.07872	1611.28381	1378.51697	-219.51086	1611.36157	1507.81934	-237.91443	1452.75769	1439.42676	-287.1843	1126.88599	1443.16382	-130.81662	1371.94189	1437.64807	-96.64314	1194.74402	1433.151	-315.33737	1286.72888	1523.84546	-191.51146	1404.46667	1277.39319	-229.05843	1206.2262	1205.82556	-254.64615	1096.6123	1196.04321	-254.78333	946.33228	1173.15027	-213.01193	823.2359	1214.32056	-273.07587	828.44879	1175.49719	-246.14061	740.87195	1176.73694	-170.80164	1407.71094	1598.53638	-202.92273	1214.81616	1696.23608	-185.31946	1096.21729	1715.25659	-131.1945	991.38477	1730.64917	-23.3876	890.44666	1691.0719	-71.25582	867.51068	1731.78284	-5.878	814.74847	1729.99927	-113.63074	957.80316	1343.78796	-130.17542	962.08752	1561.40759	-272.30789	990.23981	1356.74719	-278.41568	998.9704	1523.89417	-99.97785	656.84387	1283.71741	-34.90755	510.20352	1316.93372	-66.32479	258.23926	1324.88062	-67.19934	86.00207	1364.59949	-104.0489	71.2974	1414.01135	73.73778	55.85443	1360.6394	-222.84816	630.84863	1595.96106	-233.90265	505.27609	1570.21326	-337.35971	255.76608	1546.64294	-386.18118	80.93609	1485.13184	-424.67508	62.85166	1434.7113	-240.18388	36.89409	1504.43677	-186.57738	1703.47571	1430.03748	NaN	NaN	NaN	NaN	NaN	NaN	NaN	NaN	NaN	NaN	NaN	NaN	NaN	NaN	NaN
59	0.58	-80.98871	1652.15747	1364.92358	-70.78735	1647.46521	1496.50623	-217.3425	1608.85168	1378.7124	-205.34639	1608.98218	1507.70874	-223.96516	1450.4552	1439.71521	-273.50095	1124.62219	1443.54065	-116.88908	1369.60229	1437.9563	-82.92345	1192.38855	1433.62756	-301.47977	1284.6073	1524.36523	-177.43369	1401.88928	1277.61023	-217.42848	1204.09692	1206.22217	-244.37927	1094.68799	1197.14038	-247.50229	944.45392	1174.31274	-209.14359	820.25153	1216.03052	-268.00806	827.10706	1176.4469	-243.46715	738.77582	1178.09155	-156.83203	1405.61401	1598.80518	-188.92847	1212.96362	1696.94641	-170.5558	1094.72278	1716.19116	-113.91084	991.35168	1730.78955	-3.77051	893.67035	1689.573	-50.51504	869.38226	1730.97498	16.32475	818.50549	1728.26697	-99.27121	955.71796	1344.41846	-116.41773	960.03101	1561.95068	-257.87921	987.73279	1356.87061	-264.57397	996.60461	1524.0249	-86.15613	654.08252	1284.32043	-19.71202	508.16098	1317.35266	-36.45364	254.44304	1326.99451	-25.42917	82.81433	1367.97363	-61.56978	66.83958	1417.57349	117.68385	60.539	1364.53772	-212.6998	629.34814	1596.00098	-226.56995	503.99149	1570.47375	-333.80042	255.86484	1545.4989	-385.36987	81.93261	1483.77161	-423.78278	64.38477	1433.05823	-240.06592	36.77519	1504.41541	-172.75562	1701.14893	1429.96948	NaN	NaN	NaN	NaN	NaN	NaN	NaN	NaN	NaN	NaN	NaN	NaN	NaN	NaN	NaN
60	0.59	-67.16891	1649.71814	1364.7179	-56.71351	1645.24243	1496.35571	-203.44203	1606.18018	1378.73499	-191.66832	1606.62207	1507.85193	-209.83876	1448.02869	1439.84192	-259.66928	1122.11084	1443.88403	-102.92316	1367.06641	1438.15222	-69.05928	1189.91919	1434.06763	-287.63416	1282.31799	1524.82983	-163.52391	1399.18005	1277.72986	-205.705	1201.81189	1206.77966	-234.10107	1092.80322	1198.06982	-239.87558	942.57941	1175.42383	-203.38417	817.78473	1217.03711	-262.62875	825.71564	1177.47437	-240.34267	736.81097	1179.40369	-142.81436	1403.36523	1599.02649	-174.91858	1210.95935	1697.57861	-156.05931	1093.02673	1716.96533	-96.61633	991.30347	1730.80579	15.19337	896.86926	1688.41455	-30.29457	871.15186	1730.22473	37.95747	822.19415	1726.68835	-84.69273	953.55023	1345.04138	-102.46539	957.94067	1562.55823	-243.34387	984.98364	1356.92151	-250.68571	994.09918	1524.2428	-72.45827	651.07599	1284.31494	-4.81069	505.36813	1317.73633	-7.03014	251.09772	1328.99902	15.59265	80.78652	1371.25598	-18.73413	62.47952	1420.77161	160.2168	66.26146	1368.55127	-202.31253	627.8548	1596.06665	-218.69164	502.68732	1570.59436	-330.80283	256.40027	1544.58789	-384.4707	83.1668	1482.50281	-422.72559	66.01876	1431.48853	-239.9278	36.69231	1504.25134	-158.90446	1698.62463	1429.83313	NaN	NaN	NaN	NaN	NaN	NaN	NaN	NaN	NaN	NaN	NaN	NaN	NaN	NaN	NaN
61	0.6	-53.39536	1647.16223	1364.42737	-42.7171	1642.78894	1496.04126	-189.67824	1603.42358	1378.83984	-177.59245	1604.03418	1507.79517	-195.91835	1445.41589	1440.01538	-245.63631	1119.36572	1444.16199	-88.84206	1364.42029	1438.28284	-55.13999	1187.36255	1434.35034	-273.55252	1279.73779	1525.13794	-149.48393	1396.33325	1277.79468	-193.92986	1199.4574	1207.39441	-223.58572	1090.7511	1198.92871	-232.0687	940.6651	1176.47888	-198.43291	815.00616	1218.35193	-256.7576	824.29034	1178.56433	-236.48326	734.89465	1180.62036	-128.7468	1400.97534	1599.19922	-160.85641	1208.86011	1698.1864	-141.33856	1091.30493	1717.82483	-80.15534	991.00293	1730.86389	33.81569	899.79395	1687.01489	-10.5079	872.81281	1729.5874	58.80637	825.58142	1724.89502	-70.09056	951.29639	1345.64368	-88.26102	955.67566	1563.10632	-228.58809	981.92267	1356.99133	-236.63655	991.47461	1524.33618	-58.93072	647.60144	1283.83423	9.52486	502.17047	1318.36279	21.74006	248.16315	1331.04285	55.42794	79.8651	1374.28625	22.18046	60.25665	1423.89246	201.08049	72.51237	1372.41699	-191.6362	626.2951	1596.17029	-210.16524	501.26312	1570.52271	-327.29266	257.02917	1543.70239	-383.47556	84.62248	1481.46472	-421.70605	67.99424	1430.17029	-239.69453	36.5648	1503.98877	-145.12851	1695.97095	1429.75793	NaN	NaN	NaN	NaN	NaN	NaN	NaN	NaN	NaN	NaN	NaN	NaN	NaN	NaN	NaN
62	0.61	-39.57357	1644.5249	1364.12256	-28.69067	1640.30139	1495.73315	-175.65163	1600.55212	1378.729	-163.29483	1601.34827	1507.8219	-181.69296	1442.69775	1439.9054	-231.63885	1116.57434	1444.32751	-74.65564	1361.75793	1438.28015	-41.12025	1184.72437	1434.67603	-259.62155	1277.14233	1525.4585	-135.45981	1393.45056	1277.73743	-181.69164	1196.9502	1208.13831	-213.0201	1088.62427	1199.77319	-223.79671	938.69293	1177.41284	-191.72691	812.63483	1218.77014	-250.60095	822.86304	1179.60791	-232.05382	732.9306	1181.79724	-114.61309	1398.54126	1599.26489	-146.75838	1206.62683	1698.71936	-126.98239	1089.4425	1718.50073	-63.69679	990.83081	1731.09473	51.72254	902.47791	1685.75024	8.55823	874.3985	1728.83826	78.28681	828.49823	1722.71741	-55.05692	949.06934	1346.229	-73.94981	953.34729	1563.65576	-213.73207	978.77997	1356.90442	-222.26178	988.59955	1524.2616	-45.34058	643.58594	1282.9895	23.58713	498.58194	1319.17603	49.36578	245.81049	1333.02576	93.46718	79.93768	1377.00647	61.35876	59.26208	1426.62939	239.68552	79.32181	1375.98828	-180.65738	624.76611	1596.28101	-201.3065	499.85199	1570.81445	-322.98816	257.6875	1543.03796	-382.48572	86.3125	1480.90308	-420.8959	70.28601	1429.54724	-239.55843	36.46305	1503.65503	-131.29494	1693.20435	1429.55811	NaN	NaN	NaN	NaN	NaN	NaN	NaN	NaN	NaN	NaN	NaN	NaN	NaN	NaN	NaN
